<svg width="105" height="18" viewBox="0 0 105 18" fill="none" xmlns="http://www.w3.org/2000/svg">
<path d="M9.79202 0.0479717L16.392 17.16H13.176L11.544 12.624H4.77602L3.09602 17.16H1.65924e-05L6.60002 0.0479717H9.79202ZM10.752 10.368L8.20802 3.16797L5.54402 10.368H10.752ZM25.2478 0.263972V17.16H22.3198V5.54397H18.1438V3.52797C21.0478 3.52797 22.6798 2.44797 23.0398 0.263972H25.2478ZM55.7755 0.0719728V17.16H52.9195V3.98397L48.1675 17.16H45.7195L40.8475 3.98397V17.16H38.0155V0.0719728H42.2155L46.9915 13.44L51.5995 0.0719728H55.7755ZM70.0716 13.296C69.7596 14.64 69.0876 15.696 68.0796 16.44C67.0716 17.208 65.8476 17.568 64.4556 17.568C62.5836 17.568 61.0956 16.968 59.9916 15.768C58.8876 14.568 58.3596 13.008 58.3596 11.112C58.3596 9.19197 58.9116 7.58397 60.0396 6.31197C61.1676 5.06397 62.6076 4.41597 64.3596 4.41597C66.1596 4.41597 67.5996 5.03997 68.6556 6.28797C69.7116 7.53597 70.2396 9.21597 70.2396 11.352V11.64H61.0956C61.1196 12.888 61.4316 13.872 62.0316 14.544C62.6076 15.216 63.4476 15.552 64.5036 15.552C65.2476 15.552 65.8476 15.384 66.3276 15.024C66.8076 14.664 67.1676 14.088 67.4556 13.296H70.0716ZM67.5036 9.81597C67.4076 8.78397 67.0956 7.96797 66.5196 7.36797C65.9436 6.76797 65.2236 6.45597 64.3356 6.45597C63.4236 6.45597 62.7036 6.74397 62.1516 7.31997C61.5996 7.89597 61.2636 8.73597 61.1436 9.81597H67.5036ZM84.0555 0.0719728V17.16H81.4875V15.456C80.6955 16.824 79.3755 17.496 77.5275 17.496C75.7755 17.496 74.3835 16.92 73.3515 15.72C72.3195 14.544 71.8155 12.96 71.8155 10.944C71.8155 8.97597 72.3195 7.39197 73.3275 6.21597C74.3355 5.03997 75.7035 4.43997 77.4315 4.43997C79.1595 4.43997 80.4795 5.08797 81.3675 6.38397V0.0719728H84.0555ZM77.9355 6.64797C76.8795 6.64797 76.0635 7.03197 75.4635 7.79997C74.8635 8.56797 74.5755 9.59997 74.5755 10.896C74.5755 12.264 74.8635 13.344 75.4875 14.112C76.1115 14.904 76.9515 15.288 78.0315 15.288C79.0875 15.288 79.9275 14.904 80.5275 14.136C81.1275 13.368 81.4395 12.312 81.4395 10.944C81.4395 9.59997 81.1275 8.54397 80.5035 7.77597C79.8795 7.03197 79.0395 6.64797 77.9355 6.64797ZM89.7994 -2.76566e-05V2.68797H87.0634V-2.76566e-05H89.7994ZM89.7994 4.77597V17.16H87.0634V4.77597H89.7994ZM92.6605 8.59197C92.9485 5.80797 94.7485 4.39197 98.0845 4.39197C99.6205 4.39197 100.868 4.70397 101.78 5.30397C102.692 5.92797 103.172 6.86397 103.172 8.13597V14.424C103.172 14.784 103.196 15.024 103.292 15.144C103.388 15.288 103.556 15.336 103.82 15.336C104.012 15.336 104.204 15.336 104.444 15.288V17.208C103.724 17.4 103.148 17.472 102.668 17.472C101.492 17.472 100.82 16.992 100.652 15.984C99.5965 16.992 98.1565 17.472 96.3085 17.472C95.0125 17.472 94.0045 17.16 93.2605 16.488C92.4925 15.816 92.1325 14.928 92.1325 13.776C92.1325 13.44 92.1565 13.104 92.2525 12.792C92.3245 12.504 92.4205 12.24 92.5165 12C92.6125 11.784 92.7805 11.568 93.0205 11.376C93.2605 11.184 93.4525 11.04 93.5965 10.896C93.7405 10.776 94.0045 10.656 94.3405 10.536C94.6765 10.44 94.9405 10.344 95.1085 10.296C95.2765 10.248 95.5645 10.176 95.9965 10.104C96.4045 10.056 96.6685 10.008 96.8125 9.98397C96.9565 9.95997 97.2445 9.91197 97.6765 9.86397C98.6365 9.74397 99.3085 9.64797 99.6685 9.55197C100.004 9.45597 100.244 9.33597 100.388 9.14397C100.484 9.02397 100.556 8.73597 100.556 8.25597C100.556 7.00797 99.6925 6.38397 98.0125 6.38397C97.1005 6.38397 96.4525 6.55197 96.0445 6.88797C95.6125 7.22397 95.3485 7.79997 95.2525 8.59197H92.6605ZM100.532 10.944C100.316 11.064 100.076 11.16 99.8125 11.256C99.5245 11.352 99.3085 11.4 99.1405 11.424C98.9725 11.448 98.7085 11.472 98.3485 11.52C97.9885 11.568 97.7485 11.616 97.6525 11.616C97.3165 11.664 97.0525 11.712 96.8605 11.76C96.6685 11.808 96.4285 11.856 96.1405 11.952C95.8525 12.048 95.6365 12.168 95.4925 12.312C95.3485 12.456 95.2045 12.624 95.1085 12.864C94.9885 13.104 94.9405 13.368 94.9405 13.68C94.9405 14.28 95.1325 14.736 95.5165 15.048C95.9005 15.384 96.4525 15.528 97.1725 15.528C98.3725 15.528 99.3085 15.216 99.9805 14.544C100.34 14.184 100.532 13.464 100.532 12.408V10.944Z" fill="white"/>
</svg>
