<svg width="281" height="35" viewBox="0 0 281 35" fill="none" xmlns="http://www.w3.org/2000/svg">
<path d="M0.000113487 34.1758V0.575779H6.43211L26.2561 24.7678H23.1361V0.575779H30.8161V34.1758H24.4321L4.56011 9.98378H7.68011V34.1758H0.000113487ZM55.0857 34.7518C52.4297 34.7518 49.9657 34.3198 47.6937 33.4558C45.4537 32.5918 43.5017 31.3758 41.8377 29.8078C40.2057 28.2398 38.9257 26.3998 37.9977 24.2878C37.1017 22.1758 36.6537 19.8718 36.6537 17.3758C36.6537 14.8798 37.1017 12.5758 37.9977 10.4638C38.9257 8.35178 40.2217 6.51178 41.8857 4.94378C43.5497 3.37578 45.5017 2.15978 47.7417 1.29578C49.9817 0.43178 52.4137 -0.000219345 55.0377 -0.000219345C57.6937 -0.000219345 60.1257 0.43178 62.3337 1.29578C64.5737 2.15978 66.5097 3.37578 68.1417 4.94378C69.8057 6.51178 71.1017 8.35178 72.0297 10.4638C72.9577 12.5438 73.4217 14.8478 73.4217 17.3758C73.4217 19.8718 72.9577 22.1918 72.0297 24.3358C71.1017 26.4478 69.8057 28.2878 68.1417 29.8558C66.5097 31.3918 64.5737 32.5918 62.3337 33.4558C60.1257 34.3198 57.7097 34.7518 55.0857 34.7518ZM55.0377 28.1278C56.5417 28.1278 57.9177 27.8718 59.1657 27.3598C60.4457 26.8478 61.5657 26.1118 62.5257 25.1518C63.4857 24.1918 64.2217 23.0558 64.7337 21.7438C65.2777 20.4318 65.5497 18.9758 65.5497 17.3758C65.5497 15.7758 65.2777 14.3198 64.7337 13.0078C64.2217 11.6958 63.4857 10.5598 62.5257 9.59978C61.5977 8.63978 60.4937 7.90378 59.2137 7.39178C57.9337 6.87978 56.5417 6.62378 55.0377 6.62378C53.5337 6.62378 52.1417 6.87978 50.8617 7.39178C49.6137 7.90378 48.5097 8.63978 47.5497 9.59978C46.5897 10.5598 45.8377 11.6958 45.2937 13.0078C44.7817 14.3198 44.5257 15.7758 44.5257 17.3758C44.5257 18.9438 44.7817 20.3998 45.2937 21.7438C45.8377 23.0558 46.5737 24.1918 47.5017 25.1518C48.4617 26.1118 49.5817 26.8478 50.8617 27.3598C52.1417 27.8718 53.5337 28.1278 55.0377 28.1278ZM86.2257 26.4958L85.7937 17.5198L101.874 0.575779H110.514L96.0177 16.1758L91.6977 20.7838L86.2257 26.4958ZM79.2657 34.1758V0.575779H86.9937V34.1758H79.2657ZM102.258 34.1758L90.3057 19.5358L95.3937 14.0158L111.33 34.1758H102.258ZM125.134 34.7518C122.446 34.7518 119.87 34.3998 117.406 33.6958C114.942 32.9598 112.958 32.0158 111.454 30.8638L114.094 25.0078C115.534 26.0318 117.23 26.8798 119.182 27.5518C121.166 28.1918 123.166 28.5118 125.182 28.5118C126.718 28.5118 127.95 28.3678 128.878 28.0798C129.838 27.7598 130.542 27.3278 130.99 26.7838C131.438 26.2398 131.662 25.6158 131.662 24.9118C131.662 24.0158 131.31 23.3118 130.606 22.7998C129.902 22.2558 128.974 21.8238 127.822 21.5038C126.67 21.1518 125.39 20.8318 123.982 20.5438C122.606 20.2238 121.214 19.8398 119.806 19.3918C118.43 18.9438 117.166 18.3678 116.014 17.6638C114.862 16.9598 113.918 16.0318 113.182 14.8798C112.478 13.7278 112.126 12.2558 112.126 10.4638C112.126 8.54378 112.638 6.79978 113.662 5.23178C114.718 3.63178 116.286 2.36778 118.366 1.43978C120.478 0.47978 123.118 -0.000219345 126.286 -0.000219345C128.398 -0.000219345 130.478 0.25578 132.526 0.767779C134.574 1.24778 136.382 1.98378 137.95 2.97578L135.55 8.87978C133.982 7.98378 132.414 7.32778 130.846 6.91178C129.278 6.46378 127.742 6.23978 126.238 6.23978C124.734 6.23978 123.502 6.41578 122.542 6.76778C121.582 7.11978 120.894 7.58378 120.478 8.15978C120.062 8.70378 119.854 9.34378 119.854 10.0798C119.854 10.9438 120.206 11.6478 120.91 12.1918C121.614 12.7038 122.542 13.1198 123.694 13.4398C124.846 13.7598 126.11 14.0798 127.486 14.3998C128.894 14.7198 130.286 15.0878 131.662 15.5038C133.07 15.9198 134.35 16.4798 135.502 17.1838C136.654 17.8878 137.582 18.8158 138.286 19.9678C139.022 21.1198 139.39 22.5758 139.39 24.3358C139.39 26.2238 138.862 27.9518 137.806 29.5198C136.75 31.0878 135.166 32.3518 133.054 33.3118C130.974 34.2718 128.334 34.7518 125.134 34.7518ZM144.703 34.1758V0.575779H152.479V27.8398H169.327V34.1758H144.703ZM189.429 34.7518C186.773 34.7518 184.309 34.3198 182.037 33.4558C179.797 32.5918 177.845 31.3758 176.181 29.8078C174.549 28.2398 173.269 26.3998 172.341 24.2878C171.445 22.1758 170.997 19.8718 170.997 17.3758C170.997 14.8798 171.445 12.5758 172.341 10.4638C173.269 8.35178 174.565 6.51178 176.229 4.94378C177.893 3.37578 179.845 2.15978 182.085 1.29578C184.325 0.43178 186.757 -0.000219345 189.381 -0.000219345C192.037 -0.000219345 194.469 0.43178 196.677 1.29578C198.917 2.15978 200.853 3.37578 202.485 4.94378C204.149 6.51178 205.445 8.35178 206.373 10.4638C207.301 12.5438 207.765 14.8478 207.765 17.3758C207.765 19.8718 207.301 22.1918 206.373 24.3358C205.445 26.4478 204.149 28.2878 202.485 29.8558C200.853 31.3918 198.917 32.5918 196.677 33.4558C194.469 34.3198 192.053 34.7518 189.429 34.7518ZM189.381 28.1278C190.885 28.1278 192.261 27.8718 193.509 27.3598C194.789 26.8478 195.909 26.1118 196.869 25.1518C197.829 24.1918 198.565 23.0558 199.077 21.7438C199.621 20.4318 199.893 18.9758 199.893 17.3758C199.893 15.7758 199.621 14.3198 199.077 13.0078C198.565 11.6958 197.829 10.5598 196.869 9.59978C195.941 8.63978 194.837 7.90378 193.557 7.39178C192.277 6.87978 190.885 6.62378 189.381 6.62378C187.877 6.62378 186.485 6.87978 185.205 7.39178C183.957 7.90378 182.853 8.63978 181.893 9.59978C180.933 10.5598 180.181 11.6958 179.637 13.0078C179.125 14.3198 178.869 15.7758 178.869 17.3758C178.869 18.9438 179.125 20.3998 179.637 21.7438C180.181 23.0558 180.917 24.1918 181.845 25.1518C182.805 26.1118 183.925 26.8478 185.205 27.3598C186.485 27.8718 187.877 28.1278 189.381 28.1278ZM229.689 34.7518C227.097 34.7518 224.681 34.3358 222.441 33.5038C220.233 32.6398 218.313 31.4238 216.681 29.8558C215.049 28.2878 213.769 26.4478 212.841 24.3358C211.945 22.2238 211.497 19.9038 211.497 17.3758C211.497 14.8478 211.945 12.5278 212.841 10.4158C213.769 8.30378 215.049 6.46378 216.681 4.89578C218.345 3.32778 220.281 2.12778 222.489 1.29578C224.697 0.43178 227.113 -0.000219345 229.737 -0.000219345C232.649 -0.000219345 235.273 0.511781 237.609 1.53578C239.977 2.52778 241.961 3.99978 243.561 5.95178L238.569 10.5598C237.417 9.24778 236.137 8.27178 234.729 7.63178C233.321 6.95978 231.785 6.62378 230.121 6.62378C228.553 6.62378 227.113 6.87978 225.801 7.39178C224.489 7.90378 223.353 8.63978 222.393 9.59978C221.433 10.5598 220.681 11.6958 220.137 13.0078C219.625 14.3198 219.369 15.7758 219.369 17.3758C219.369 18.9758 219.625 20.4318 220.137 21.7438C220.681 23.0558 221.433 24.1918 222.393 25.1518C223.353 26.1118 224.489 26.8478 225.801 27.3598C227.113 27.8718 228.553 28.1278 230.121 28.1278C231.785 28.1278 233.321 27.8078 234.729 27.1678C236.137 26.4958 237.417 25.4878 238.569 24.1438L243.561 28.7518C241.961 30.7038 239.977 32.1918 237.609 33.2158C235.273 34.2398 232.633 34.7518 229.689 34.7518ZM255.773 26.4958L255.341 17.5198L271.421 0.575779H280.061L265.565 16.1758L261.245 20.7838L255.773 26.4958ZM248.813 34.1758V0.575779H256.541V34.1758H248.813ZM271.805 34.1758L259.853 19.5358L264.941 14.0158L280.877 34.1758H271.805Z" fill="#5AB2FF"/>
</svg>
