<svg width="84" height="19" viewBox="0 0 84 19" fill="none" xmlns="http://www.w3.org/2000/svg">
<path d="M2.5034e-06 14.12V12.56H1.76V1.53999H2.5034e-06V-5.48363e-06H6.58C7.44 -5.48363e-06 8.3 0.0599949 9 0.379994C10.46 0.999995 11.4 2.49999 11.4 4.37999C11.4 6.35999 10.36 7.95999 8.74 8.52C8.08 8.75999 7.4 8.81999 6.62 8.81999H3.76V12.56H5.54V14.12H2.5034e-06ZM3.76 7.18H6.38C7.02 7.18 7.52 7.07999 7.96 6.89999C8.86 6.49999 9.38 5.59999 9.38 4.37999C9.38 3.23999 8.92 2.39999 8.12 1.97999C7.68 1.73999 7.08 1.63999 6.4 1.63999H3.76V7.18ZM12.6502 9.03999C12.6502 5.98 15.0902 3.75999 18.1102 3.75999C21.1302 3.75999 23.5702 5.98 23.5702 9.03999C23.5702 12.12 21.1302 14.36 18.1102 14.36C15.0902 14.36 12.6502 12.12 12.6502 9.03999ZM14.6302 9.03999C14.6302 11.16 16.1902 12.68 18.1102 12.68C20.0102 12.68 21.5902 11.16 21.5902 9.03999C21.5902 6.93999 20.0102 5.43999 18.1102 5.43999C16.1902 5.43999 14.6302 6.93999 14.6302 9.03999ZM25.1697 11.94V10.86H26.8697V11.52C26.8697 12.38 28.0697 12.78 29.1897 12.78C30.3297 12.78 31.2297 12.32 31.2297 11.48C31.2297 10.46 30.1097 10.14 28.7097 9.63999C27.2097 9.08 25.5497 8.39999 25.5497 6.55999C25.5497 4.55999 27.5297 3.75999 29.2897 3.75999C30.7097 3.75999 32.7897 4.31999 32.7897 5.79999V7.01999H31.0897V6.35999C31.0897 5.73999 30.2897 5.31999 29.3097 5.31999C28.3497 5.31999 27.5097 5.71999 27.5097 6.53999C27.5097 7.49999 28.6297 7.89999 29.8497 8.31999C31.4097 8.84 33.1897 9.49999 33.1897 11.38C33.1897 13.3 31.4297 14.36 29.1297 14.36C27.2897 14.36 25.1697 13.54 25.1697 11.94ZM36.0586 10.42V5.49999H34.3586V3.99999H36.0986V1.21999H37.9986V3.99999H40.4186V5.49999H37.9986V10.24C37.9986 12.3 39.3986 12.56 40.1586 12.56C40.4386 12.56 40.6186 12.54 40.6186 12.54V14.16C40.6186 14.16 40.3386 14.2 39.9186 14.2C38.6386 14.2 36.0586 13.8 36.0586 10.42ZM41.8856 16.62H43.4656V5.93999C43.4656 5.63999 43.3056 5.49999 43.0256 5.49999H41.7856V3.99999H44.0256C44.9256 3.99999 45.2656 4.39999 45.2656 4.99999V5.07999C45.2656 5.39999 45.2256 5.65999 45.2256 5.65999H45.2656C45.2656 5.65999 46.1056 3.75999 48.6656 3.75999C51.3856 3.75999 53.1056 5.91999 53.1056 9.05999C53.1056 12.28 51.1656 14.36 48.5256 14.36C46.3056 14.36 45.3856 12.64 45.3856 12.64H45.3456C45.3456 12.64 45.4056 13 45.4056 13.52V16.62H47.0056V18.12H41.8856V16.62ZM45.3656 9.09999C45.3656 10.9 46.3456 12.68 48.2256 12.68C49.8256 12.68 51.1456 11.38 51.1456 9.08C51.1456 6.87999 49.9656 5.45999 48.2656 5.45999C46.7656 5.45999 45.3656 6.51999 45.3656 9.09999ZM54.6 11.3C54.6 8.11999 58.82 7.89999 60.5 7.89999H61.14V7.51999C61.14 5.91999 60.22 5.35999 58.98 5.35999C57.38 5.35999 56.08 6.33999 56.08 6.33999L55.3 4.95999C55.3 4.95999 56.78 3.75999 59.14 3.75999C61.72 3.75999 63.08 5.09999 63.08 7.65999V12.18C63.08 12.48 63.24 12.62 63.52 12.62H64.54V14.12H62.52C61.62 14.12 61.26 13.68 61.26 13.02V12.88C61.26 12.48 61.34 12.22 61.34 12.22H61.3C61.3 12.22 60.42 14.36 57.96 14.36C56.28 14.36 54.6 13.38 54.6 11.3ZM56.56 11.14C56.56 12.04 57.22 12.86 58.38 12.86C60.1 12.86 61.16 11.1 61.16 9.57999V9.15999H60.66C59.74 9.15999 56.56 9.19999 56.56 11.14ZM67.5338 1.97999V-5.48363e-06H69.5738V1.97999H67.5338ZM65.9938 14.12V12.62H67.5738V5.49999H65.8938V3.99999H69.5138V12.62H71.1138V14.12H65.9938ZM72.5925 9.05999C72.5925 5.83999 74.4725 3.75999 77.1925 3.75999C79.4925 3.75999 80.3125 5.45999 80.3125 5.45999H80.3525C80.3525 5.45999 80.2925 5.13999 80.2925 4.69999V1.49999H78.6125V-5.48363e-06H82.2325V12.18C82.2325 12.48 82.3925 12.62 82.6725 12.62H83.6925V14.12H81.6725C80.7725 14.12 80.4125 13.68 80.4125 13.02V12.88C80.4125 12.54 80.4725 12.34 80.4725 12.34H80.4325C80.4325 12.34 79.6125 14.36 77.0125 14.36C74.2925 14.36 72.5925 12.2 72.5925 9.05999ZM74.5725 9.05999C74.5725 11.26 75.7525 12.68 77.4325 12.68C78.9325 12.68 80.3525 11.6 80.3525 9.08C80.3525 7.21999 79.4125 5.45999 77.4925 5.45999C75.8725 5.45999 74.5725 6.75999 74.5725 9.05999Z" fill="#1B4DF5"/>
</svg>
