<svg width="30" height="35" viewBox="0 0 30 35" fill="none" xmlns="http://www.w3.org/2000/svg">
<path d="M14.5813 0H0V28.5215H14.5813C22.6342 28.5215 29.1626 22.1366 29.1626 14.2607C29.1626 6.38491 22.6342 0 14.5813 0ZM6.62413 12.2416C4.93563 12.2416 3.56842 10.9045 3.56842 9.2531C3.56842 7.60172 4.93563 6.26456 6.62413 6.26456C8.31263 6.26456 9.67985 7.60172 9.67985 9.2531C9.67985 10.9045 8.31263 12.2416 6.62413 12.2416Z" fill="#1B4DF5"/>
<path d="M6.62413 35C10.2825 35 13.2483 32.0995 13.2483 28.5215C13.2483 24.9435 10.2825 22.043 6.62413 22.043C2.96572 22.043 0 24.9435 0 28.5215C0 32.0995 2.96572 35 6.62413 35Z" fill="#142657"/>
</svg>
