<svg width="16" height="16" viewBox="0 0 16 16" fill="none" xmlns="http://www.w3.org/2000/svg">
<g clip-path="url(#clip0_226_332)">
<path d="M14.711 12.2802C13.8394 12.2564 13.1739 12.3379 12.6045 12.5776C12.4429 12.646 12.1851 12.6475 12.1588 12.8501C12.2476 12.9434 12.2613 13.0825 12.3321 13.1972C12.4679 13.4165 12.6974 13.7114 12.902 13.8662C13.1256 14.0347 13.3561 14.2154 13.5959 14.3614C14.0226 14.6216 14.4988 14.7701 14.9089 15.0304C15.1511 15.1841 15.3913 15.3775 15.6276 15.5509C15.7444 15.6364 15.823 15.7696 15.9743 15.8234V15.799C15.8946 15.6975 15.8741 15.5577 15.8009 15.4519L15.4786 15.1296C15.1636 14.7116 14.7638 14.3445 14.339 14.0397C14.0001 13.7961 13.2414 13.4675 13.1003 13.0735L13.0754 13.0486C13.3156 13.0212 13.5969 12.9344 13.819 12.8747C14.1915 12.7751 14.5246 12.801 14.9089 12.7014L15.4294 12.553V12.4539C15.235 12.2546 15.0964 11.9905 14.8845 11.8099C14.3294 11.3372 13.7239 10.8655 13.1004 10.472C12.7546 10.2537 12.3274 10.1116 11.9608 9.92661C11.8373 9.86461 11.6209 9.83186 11.5394 9.72836C11.347 9.48323 11.242 9.17223 11.0936 8.8861C10.7826 8.28698 10.4774 7.63323 10.2015 7.00285C10.0135 6.57323 9.89102 6.14935 9.65665 5.7641C8.53165 3.91448 7.32077 2.79786 5.44477 1.70061C5.0454 1.46723 4.5649 1.37498 4.05702 1.25436L3.23915 1.20498C3.07265 1.13561 2.89977 0.93198 2.74352 0.832855C2.12215 0.43998 0.527897 -0.41402 0.0673975 0.70898C-0.223103 1.41748 0.502023 2.10886 0.761272 2.46823C0.943397 2.71973 1.17627 3.00236 1.30615 3.28561C1.39215 3.47211 1.40677 3.65861 1.48002 3.85548C1.65977 4.34086 1.8169 4.86911 2.0499 5.31736C2.16752 5.54436 2.2974 5.78323 2.4464 5.98635C2.53727 6.11085 2.6939 6.1661 2.7189 6.35798C2.56552 6.57235 2.55677 6.90486 2.4709 7.17586C2.08365 8.39711 2.23015 9.9146 2.79315 10.818C2.96602 11.0959 3.37327 11.6905 3.93277 11.4625C4.42252 11.2627 4.31315 10.6451 4.45327 10.0997C4.48502 9.97623 4.46552 9.88535 4.52752 9.80235V9.82723L4.97377 10.7189C5.3039 11.2506 5.88927 11.8062 6.3859 12.1812C6.64327 12.3756 6.8459 12.7115 7.1789 12.8252V12.8004H7.15402C7.08952 12.6997 6.98852 12.6582 6.90652 12.5777C6.71265 12.3874 6.4969 12.151 6.33665 11.9332C5.88502 11.3205 5.48602 10.6495 5.12277 9.95135C4.9489 9.61785 4.79802 9.25023 4.65152 8.91086C4.5949 8.77998 4.5959 8.58173 4.47815 8.51435C4.31802 8.76285 4.08165 8.9641 3.95765 9.25748C3.7599 9.72673 3.73402 10.2995 3.66077 10.8927C3.61727 10.9084 3.6364 10.8976 3.61102 10.9176C3.26577 10.8341 3.14477 10.4791 3.01627 10.174C2.69202 9.40348 2.63152 8.16273 2.91715 7.2751C2.9909 7.04561 3.3249 6.32298 3.18965 6.1106C3.12515 5.89923 2.91227 5.7766 2.79315 5.61498C2.64565 5.41523 2.49877 5.1521 2.39665 4.9211C2.13102 4.32048 2.00752 3.64573 1.72765 3.03836C1.5939 2.74786 1.36827 2.45386 1.18277 2.19611C0.977148 1.90998 0.747272 1.69898 0.588022 1.35336C0.531397 1.23036 0.454773 1.03348 0.538273 0.907605C0.565148 0.822105 0.602772 0.78648 0.687147 0.75873C0.830647 0.647855 1.23115 0.795855 1.38052 0.857855C1.77802 1.02286 2.10952 1.18011 2.4464 1.40323C2.60752 1.51011 2.77115 1.71723 2.9664 1.77486H3.18952C3.53815 1.85498 3.92877 1.79923 4.2549 1.89836C4.83102 2.07361 5.34715 2.34611 5.8159 2.64198C7.24365 3.54386 8.41165 4.82698 9.2104 6.35873C9.33877 6.60535 9.39452 6.84023 9.50777 7.10185C9.73577 7.62923 10.0234 8.17173 10.2504 8.68785C10.4774 9.20198 10.6981 9.7216 11.0189 10.1497C11.1874 10.3749 11.8378 10.4955 12.1336 10.6205C12.3411 10.7079 12.681 10.7992 12.8773 10.9179C13.2523 11.144 13.6155 11.4135 13.9676 11.661C14.1429 11.785 14.6839 12.057 14.7108 12.2806L14.711 12.2802ZM3.6354 2.84023C3.45377 2.83686 3.3254 2.85973 3.18965 2.88961V2.91448H3.21402C3.3009 3.09223 3.45377 3.20698 3.56115 3.36023L3.80865 3.88073L3.83352 3.85636C3.9869 3.74798 4.05715 3.57511 4.05615 3.31098C3.99465 3.24598 3.9859 3.16548 3.93215 3.08786C3.8619 2.98486 3.72465 2.92673 3.63527 2.84036L3.6354 2.84023Z" fill="white"/>
</g>
<defs>
<clipPath id="clip0_226_332">
<rect width="16" height="16" fill="white"/>
</clipPath>
</defs>
</svg>
