<svg width="16" height="16" viewBox="0 0 16 16" fill="none" xmlns="http://www.w3.org/2000/svg">
<path d="M14.942 3.0729L8.37101 14.8229C8.34015 14.8782 8.29516 14.9242 8.24064 14.9564C8.18612 14.9885 8.12403 15.0056 8.06074 15.0059C7.99744 15.0061 7.93522 14.9895 7.88044 14.9578C7.82567 14.9261 7.78031 14.8804 7.74901 14.8254L1.04801 3.0739C1.01432 3.01494 0.998142 2.94759 1.00138 2.87976C1.00462 2.81192 1.02715 2.74642 1.0663 2.69094C1.10546 2.63546 1.15963 2.59229 1.22246 2.56652C1.28529 2.54074 1.35416 2.53341 1.42101 2.5454L7.99901 3.7214C8.04082 3.72909 8.08369 3.72909 8.12551 3.7214L14.566 2.5474C14.6326 2.53524 14.7013 2.54225 14.764 2.56762C14.8268 2.593 14.881 2.63569 14.9204 2.69072C14.9598 2.74575 14.9828 2.81085 14.9866 2.87843C14.9904 2.94601 14.975 3.01378 14.942 3.0729Z" fill="url(#paint0_linear_226_315)"/>
<path d="M11.132 1.0034L6.26998 1.9559C6.23117 1.96374 6.19603 1.98415 6.17 2.01398C6.14396 2.04381 6.12849 2.08139 6.12598 2.1209L5.82698 7.1729C5.82533 7.20061 5.83016 7.22833 5.8411 7.25385C5.85204 7.27937 5.86879 7.30198 5.89 7.3199C5.91121 7.33781 5.93631 7.35052 5.9633 7.35704C5.99029 7.36355 6.01843 7.36367 6.04548 7.3574L7.39898 7.0449C7.42813 7.03816 7.45852 7.03886 7.48734 7.04694C7.51615 7.05502 7.54248 7.07021 7.56389 7.09112C7.5853 7.11203 7.6011 7.13799 7.60986 7.16661C7.61861 7.19523 7.62003 7.22559 7.61398 7.2549L7.21198 9.2244C7.20577 9.25472 7.20756 9.28613 7.21716 9.31555C7.22676 9.34497 7.24384 9.37139 7.26674 9.39222C7.28963 9.41304 7.31754 9.42756 7.34774 9.43434C7.37794 9.44112 7.40938 9.43994 7.43898 9.4309L8.27498 9.1769C8.30462 9.16783 8.33612 9.16663 8.36637 9.17344C8.39662 9.18024 8.42457 9.1948 8.44748 9.21569C8.47039 9.23658 8.48747 9.26308 8.49702 9.29257C8.50658 9.32207 8.50828 9.35354 8.50198 9.3839L7.86248 12.4774C7.82248 12.6709 8.07998 12.7764 8.18748 12.6109L8.25898 12.4999L12.2215 4.5924C12.2364 4.56261 12.2426 4.52924 12.2395 4.49609C12.2364 4.46293 12.2241 4.4313 12.204 4.40477C12.1838 4.37824 12.1567 4.35787 12.1256 4.34597C12.0945 4.33406 12.0607 4.3311 12.028 4.3374L10.6345 4.6059C10.6045 4.61164 10.5735 4.60959 10.5445 4.59994C10.5156 4.5903 10.4895 4.57337 10.469 4.5508C10.4484 4.52822 10.434 4.50075 10.4271 4.471C10.4201 4.44126 10.421 4.41023 10.4295 4.3809L11.3385 1.2279C11.347 1.19847 11.3479 1.16733 11.3409 1.13748C11.334 1.10763 11.3194 1.08008 11.2987 1.05747C11.278 1.03487 11.2519 1.01797 11.2228 1.00841C11.1936 0.998856 11.1625 0.996957 11.1325 1.0029" fill="url(#paint1_linear_226_315)"/>
<defs>
<linearGradient id="paint0_linear_226_315" x1="0.884266" y1="2.12533" x2="9.06186" y2="13.2311" gradientUnits="userSpaceOnUse">
<stop stop-color="#41D1FF"/>
<stop offset="1" stop-color="#BD34FE"/>
</linearGradient>
<linearGradient id="paint1_linear_226_315" x1="7.62096" y1="1.26179" x2="9.10025" y2="11.4095" gradientUnits="userSpaceOnUse">
<stop stop-color="#FFEA83"/>
<stop offset="0.083" stop-color="#FFDD35"/>
<stop offset="1" stop-color="#FFA800"/>
</linearGradient>
</defs>
</svg>
